<?xml version="1.0" encoding="utf-8"?>
<!-- Generator: Adobe Illustrator 27.2.0, SVG Export Plug-In . SVG Version: 6.00 Build 0)  -->
<svg version="1.1" id="Ebene_1" xmlns="http://www.w3.org/2000/svg" xmlns:xlink="http://www.w3.org/1999/xlink" x="0px" y="0px"
	 viewBox="0 0 1640 1470" style="enable-background:new 0 0 1640 1470;" xml:space="preserve">
<style type="text/css">
	.st0{opacity:0.1;fill:#FFFFFF;enable-background:new    ;}
</style>
<path id="Pfad_19" class="st0" d="M1254,1346.9l287.6-410.4c55.7-79.4,64.7-182.6,23.8-270.5l-211.6-454.2
	c-41-87.9-125.7-147.4-222.4-155.9L632.2,12.1C535.6,3.6,441.7,47.3,386,126.7L98.4,537.1c-55.7,79.5-64.7,182.6-23.8,270.5
	l211.6,454.2c41,87.9,125.7,147.3,222.4,155.9l499.2,43.9C1104.4,1470.1,1198.3,1426.4,1254,1346.9z"/>
<path id="Pfad_18" class="st0" d="M1340.4,687l-147.8-316.9c-28.6-61.3-87.8-102.8-155.2-108.7L689.2,231
	c-67.4-5.9-132.9,24.6-171.7,80.1L317,597.5c-38.8,55.4-45.1,127.4-16.5,188.7l147.8,316.9c28.6,61.3,87.8,102.8,155.2,108.7
	l348.3,30.5c67.4,5.9,132.9-24.6,171.7-80.1l200.5-286.4C1362.7,820.3,1369,748.4,1340.4,687z"/>
<path id="Pfad_13" class="st0" d="M1084.4,918.6l55.6-207.3c10.8-40.1-0.7-83-30.1-112.3L958.2,447.2
	c-29.4-29.4-72.2-40.9-112.3-30.1l-207.3,55.5c-40.1,10.7-71.5,42.1-82.2,82.2l-55.6,207.3c-10.8,40.1,0.7,83,30.1,112.3
	l151.7,151.8c29.4,29.4,72.2,40.9,112.3,30.1l207.3-55.5C1042.3,990.1,1073.7,958.7,1084.4,918.6z"/>
</svg>
